<?xml version="1.0" encoding="utf-8"?>
<!-- Generator: Adobe Illustrator 21.0.0, SVG Export Plug-In . SVG Version: 6.00 Build 0)  -->
<svg version="1.1" xmlns="http://www.w3.org/2000/svg" xmlns:xlink="http://www.w3.org/1999/xlink" x="0px" y="0px"
	 viewBox="0 0 6000 3359" style="enable-background:new 0 0 6000 3359;" xml:space="preserve">
<style type="text/css">
	.st0{opacity:0.6;fill:#F8F8F8;}
	.st1{fill:#FFE048;}
	.st2{fill:#FF4964;}
	.st3{fill:url(#SVGID_1_);}
	.st4{fill:url(#SVGID_2_);}
	.st5{fill:url(#SVGID_3_);}
	.st6{fill:url(#SVGID_4_);}
	.st7{fill:#E5E5E5;}
	.st8{fill:#1429A9;}
	.st9{fill:#525EDA;}
	.st10{fill:#F8F8F8;}
	.st11{fill:url(#SVGID_5_);}
	.st12{fill:url(#SVGID_6_);}
	.st13{fill:url(#SVGID_7_);}
	.st14{fill:#F5CDBD;}
	.st15{fill:url(#SVGID_8_);}
	.st16{fill:#FFB798;}
	.st17{fill:#FFFFFF;}
	.st18{fill:#FFC19F;}
	.st19{fill:#15156B;}
	.st20{fill:url(#SVGID_9_);}
	.st21{fill:url(#SVGID_10_);}
	.st22{opacity:0.1;fill:#005CC9;}
	.st23{fill:#EDEDED;}
	.st24{fill:#FFCF63;}
	.st25{fill:url(#SVGID_11_);}
	.st26{opacity:0.2;}
	.st27{fill:#F1F3F5;}
	.st28{fill:#23364C;}
	.st29{fill:url(#SVGID_12_);}
	.st30{fill:#2F4966;}
	.st31{fill:url(#SVGID_13_);}
	.st32{opacity:0.4;fill:#FFFFFF;}
	.st33{fill:#FAFAFA;}
</style>
<g id="Layer_3">
</g>
<g id="Layer_1">
	<g>
		<path class="st0" d="M4476.6,830c0,29.1-20.6,41-45.8,26.4l-91.7-53c-25.2-14.5-45.8-50.2-45.8-79.3V618.3
			c0-29.1,20.6-41,45.8-26.4l91.7,53c25.2,14.5,45.8,50.2,45.8,79.3V830z"/>
		<path class="st1" d="M4454.2,842.8c0,29.1-20.6,41-45.8,26.4l-91.7-53c-25.2-14.5-45.8-50.2-45.8-79.3V631.1
			c0-29.1,20.6-41,45.8-26.4l91.7,53c25.2,14.5,45.8,50.2,45.8,79.3V842.8z"/>
		<path class="st2" d="M4284.4,601.5c0,0,1.3-0.8,3.8-1.8c2.6-1,6.7-1.9,11.9-1.5c5.2,0.4,11.4,2.4,17.7,5.9
			c6.3,3.4,13.3,7.3,21,11.6c15.3,8.6,33.3,18.4,52.4,29.3c4.8,2.7,9.6,5.5,14.5,8.3l3.7,2.1c1.5,1,2.4,1.7,3.7,2.5
			c2.3,1.7,4.8,3.1,7,5.1c9.4,7.8,16.6,17.4,23,27.5c5.6,10.6,10.3,21.7,12.3,33.5c1.8,12,1,23.2,1.1,34.2c-0.1,22-0.6,42.5-0.8,60
			c-0.2,8.8-0.4,16.8-0.5,24c-0.1,7.2-1.5,13.6-3.7,18.3c-2.2,4.7-5.1,7.8-7.2,9.5c-2.2,1.7-3.5,2.4-3.5,2.4s1.2-0.8,3.3-2.6
			c2-1.8,4.5-5,6.4-9.7c1.9-4.7,2.9-10.8,2.7-17.9c-0.1-7.1-0.3-15.2-0.5-24c-0.2-17.6-0.7-38.1-0.8-60c-0.2-11,0.4-22.5-1.4-33.4
			c-2-11-6.6-21.7-12.1-31.7c-5.9-9.7-13-19.1-21.3-26.2c-2-1.9-4.6-3.4-6.9-5.1l-3.4-2.3l-3.7-2.1c-4.9-2.9-9.7-5.7-14.4-8.4
			c-19-11.1-36.5-21.7-51.6-30.7c-7.5-4.6-14.4-8.7-20.5-12.4c-6-3.7-11.8-5.9-16.8-6.6c-5-0.7-9-0.1-11.6,0.7
			C4285.7,600.8,4284.4,601.5,4284.4,601.5z"/>
		
			<linearGradient id="SVGID_1_" gradientUnits="userSpaceOnUse" x1="4332.7197" y1="252.7292" x2="4436.4106" y2="252.7292" gradientTransform="matrix(0.9826 0.5673 0 1.3102 54.3121 -2072.6509)">
			<stop  offset="0" style="stop-color:#FF4964"/>
			<stop  offset="0.9959" style="stop-color:#FF9158"/>
		</linearGradient>
		<path class="st3" d="M4362.6,711c0,0-18.9-40.9-38.8-36.7c-30.6,6.4,2,87.5,38.8,125.3c36.8,4.7,69.4-38.6,38.8-80.5
			C4381.5,691.9,4362.6,711,4362.6,711z"/>
	</g>
	<g>
		<path class="st0" d="M5655.4,1414.8c0,30.8-21.8,43.4-48.5,28l-97.2-56.1c-26.7-15.4-48.5-53.2-48.5-84v-112.2
			c0-30.8,21.8-43.4,48.5-28l97.2,56.1c26.7,15.4,48.5,53.2,48.5,84V1414.8z"/>
		<path class="st1" d="M5631.7,1428.4c0,30.8-21.8,43.4-48.5,28l-97.2-56.1c-26.7-15.4-48.5-53.2-48.5-84v-112.2
			c0-30.8,21.8-43.4,48.5-28l97.2,56.1c26.7,15.4,48.5,53.2,48.5,84V1428.4z"/>
		<path class="st2" d="M5451.8,1172.8c0,0,0.3-0.2,1-0.5c0.7-0.3,1.6-0.9,3-1.4c2.7-1,7-2,12.5-1.5c5.5,0.5,12,2.6,18.7,6.3
			c6.6,3.7,14.1,7.8,22.2,12.3c16.2,9.1,35.3,19.6,55.5,31.1c5.1,2.9,10.2,5.8,15.4,8.8c5.2,2.8,10.5,6.2,15.4,10.3
			c9.6,8.1,17.6,18.1,24.1,29c6.2,11,10.9,23,13.1,35.3c1.1,6.1,1.4,12.6,1.2,18.5c0,6-0.1,11.9-0.1,17.7c-0.1,23.3-0.6,45-0.8,63.6
			c-0.2,9.3-0.3,17.8-0.5,25.4c-0.1,7.6-1.6,14.4-3.9,19.3c-2.3,5-5.3,8.3-7.6,10.1c-1.1,1-2.1,1.5-2.7,1.9c-0.6,0.4-1,0.6-1,0.6
			s0.3-0.2,0.9-0.7c0.6-0.5,1.6-1,2.6-2c2.1-1.9,4.8-5.3,6.9-10.3c2-5,3.1-11.4,2.9-19c-0.1-7.6-0.3-16.1-0.5-25.4
			c-0.2-18.6-0.7-40.3-0.8-63.6c0-5.8-0.1-11.7-0.1-17.7c0.1-6.1-0.2-11.8-1.3-17.7c-2.1-11.7-6.8-23.1-12.8-33.7
			c-6.1-10.5-13.7-20.2-22.7-28c-4.5-3.8-9.4-7-14.6-10c-5.2-3-10.3-6-15.3-8.9c-20.1-11.7-38.7-23-54.7-32.5
			c-8-4.8-15.3-9.2-21.8-13.1c-6.4-3.9-12.6-6.2-17.9-6.9c-5.3-0.7-9.6-0.1-12.3,0.8c-1.4,0.4-2.4,1-3.1,1.2
			C5452.1,1172.7,5451.8,1172.8,5451.8,1172.8z"/>
		<g>
			<linearGradient id="SVGID_2_" gradientUnits="userSpaceOnUse" x1="5467.957" y1="1316.2709" x2="5601.249" y2="1316.2709">
				<stop  offset="0" style="stop-color:#FF4964"/>
				<stop  offset="0.9959" style="stop-color:#FF9158"/>
			</linearGradient>
			<polygon class="st4" points="5468,1361.7 5468,1193.6 5601.2,1270.8 5601.2,1438.9 			"/>
			<polygon class="st1" points="5579.9,1383.9 5489.3,1331.3 5489.3,1248.7 5579.9,1301.2 			"/>
			<polygon class="st1" points="5579.9,1398.9 5579.9,1417 5489.3,1364.4 5489.3,1346.3 			"/>
			<polygon class="st1" points="5579.9,1268.2 5579.9,1286.2 5489.3,1233.6 5489.3,1215.6 			"/>
		</g>
	</g>
	<g>
		<path class="st0" d="M5233.8,960.1c0,38.8-27.5,54.7-61.1,35.3L4935,862.1c-33.6-19.4-61.1-67.1-61.1-105.9l0-153.1
			c0-38.8,27.5-54.7,61.1-35.3L5172.7,701c33.6,19.4,61.1,67.1,61.1,105.9L5233.8,960.1z"/>
		<path class="st1" d="M5211.8,976.6c0,38.8-27.5,54.7-61.1,35.3l-237.7-133.3c-33.6-19.4-61.1-67.1-61.1-105.9l0-153.1
			c0-38.8,27.5-54.7,61.1-35.3l237.7,133.2c33.6,19.4,61.1,67.1,61.1,105.9L5211.8,976.6z"/>
		<path class="st2" d="M4862.3,586.2c0,0,0.4-0.5,1.3-1.4c0.8-0.9,2.2-2.2,4.1-3.6c3.8-2.9,10.7-6.1,19.9-5.8
			c9.2,0.1,19.9,4.1,30.7,10.4c11,6,23.4,12.7,36.9,20c27,14.7,58.5,31.9,92.1,50.7c16.8,9.3,34.2,19,51.8,28.8
			c17.7,9.8,35.3,19.9,53.5,30.1c18,10.8,32.2,27.3,42.6,44.8c10.3,17.7,17.5,37.1,18.8,56.9c0.4,19.5-0.2,37.9-0.2,55.6
			c-0.1,17.6-0.3,34.3-0.4,49.7c-0.2,15.4-0.4,29.5-0.5,42c-0.1,6.2,0,12.1-0.4,17.5c-0.5,5.5-1.5,10.4-3,14.7
			c-3,8.6-8,14.2-11.8,17c-1.9,1.5-3.5,2.4-4.7,2.9c-1.1,0.5-1.7,0.8-1.7,0.8s0.6-0.3,1.7-0.9c1.1-0.6,2.7-1.6,4.5-3.1
			c3.7-3,8.4-8.6,11-17.2c1.4-4.2,2.2-9.1,2.5-14.4c0.3-5.4,0-11.2,0-17.5c-0.2-12.5-0.3-26.6-0.6-42c-0.1-15.4-0.3-32-0.4-49.7
			c-0.3-17.6,0-36.4-0.7-55.3c-1.6-18.7-8.5-37.5-18.6-54.6c-10.2-17-23.8-32.6-41.1-42.8c-17.9-10-35.7-20-53.3-29.8
			c-17.6-9.9-34.9-19.7-51.6-29.2c-33.5-18.8-64.6-36.8-91.3-52.1c-13.3-7.7-25.5-14.8-36.3-21c-10.5-6.7-20.6-10.9-29.5-11.3
			c-8.9-0.6-15.7,2.2-19.6,4.8c-2,1.3-3.4,2.5-4.3,3.4C4862.7,585.8,4862.3,586.2,4862.3,586.2z"/>
		<g>
			
				<linearGradient id="SVGID_3_" gradientUnits="userSpaceOnUse" x1="5620.3252" y1="578.4152" x2="5913.8462" y2="578.4152" gradientTransform="matrix(0.7384 0 0 0.7384 765.1222 401.8672)">
				<stop  offset="0" style="stop-color:#FF4964"/>
				<stop  offset="0.9959" style="stop-color:#FF9158"/>
			</linearGradient>
			<path class="st5" d="M4915.2,700.8v119.5c0,10.3,7.1,22.9,15.9,27.9L5116,955c8.7,5,15.9,0.7,15.9-9.6V826L4915.2,700.8z"/>
			
				<linearGradient id="SVGID_4_" gradientUnits="userSpaceOnUse" x1="5612.835" y1="431.3187" x2="5903.6895" y2="431.3187" gradientTransform="matrix(0.7384 0 0 0.7384 765.1222 401.8672)">
				<stop  offset="0" style="stop-color:#FF4964"/>
				<stop  offset="0.9959" style="stop-color:#FF9158"/>
			</linearGradient>
			<path class="st6" d="M5124.4,768.6l-36.5-9.7l-10.8-2.8l-26.5-7l-10.7-2.9l-26.5-7.1l-10.8-2.8l-26.4-7.1l-10.8-2.8l-26.5-7.1
				l-10.8-2.9l-12.9-3.4l-5-24c-2.3-11.3,2.7-18.7,11.1-16.5l13.4,3.6l10.8,2.8l26.5,7.1l10.8,2.9l26.5,7l10.8,2.8l26.6,7.1
				l10.8,2.9l26.4,7l10.8,2.8l5.3,1.4c8.4,2.2,17.2,13.3,19.6,24.6L5124.4,768.6z"/>
			<polygon class="st1" points="5113.9,934.6 4929.9,828.4 4929.9,730.3 5113.9,836.5 			"/>
			<g>
				<g>
					<polygon class="st1" points="5094.6,718.6 5087.9,758.9 5077.1,756.1 5083.8,715.7 					"/>
				</g>
				<g>
					<polygon class="st1" points="5057.4,708.7 5050.6,749 5039.9,746.2 5046.6,705.8 					"/>
				</g>
				<g>
					<polygon class="st1" points="5020,698.7 5013.4,739.1 5002.6,736.2 5009.3,695.9 					"/>
				</g>
				<g>
					<polygon class="st1" points="4982.8,688.9 4976.1,729.2 4965.3,726.3 4972,686 					"/>
				</g>
				<g>
					<polygon class="st1" points="4945.5,678.9 4938.8,719.3 4928,716.4 4934.7,676.1 					"/>
				</g>
			</g>
		</g>
	</g>
	<g>
		<g>
			<polygon class="st7" points="3055,2634.5 3958.7,3154.7 4504.7,2825.7 3600.9,2305.6 			"/>
			<path class="st8" d="M3876,3071L3876,3071L3876,3071c0-4.1,2.7-8.3,8.2-11.4c10.9-6.3,28.7-6.3,39.7,0c5.5,3.2,8.2,7.3,8.2,11.4
				l0,0l0,0c0,1.2-0.3,2.3-0.7,3.5l-6.5,30.8h0c-0.7,2.3-2.7,4.6-5.8,6.4c-8.3,4.8-21.6,4.8-29.9,0c-3.1-1.8-5.1-4.1-5.8-6.4h0
				l-6.5-30.9C3876.3,3073.4,3876,3072.2,3876,3071z"/>
			<path class="st8" d="M4339,2801.2L4339,2801.2L4339,2801.2c0-4.1,2.7-8.3,8.2-11.4c10.9-6.3,28.7-6.3,39.7,0
				c5.5,3.1,8.2,7.3,8.2,11.4l0,0l0,0c0,1.2-0.3,2.4-0.7,3.5l-6.5,30.8h0c-0.8,2.4-2.7,4.6-5.8,6.4c-8.3,4.8-21.6,4.8-29.9,0
				c-3.1-1.8-5.1-4.1-5.8-6.4h0l-6.5-30.8C4339.3,2803.6,4339,2802.4,4339,2801.2z"/>
			<path class="st8" d="M3050.2,2589.9L3050.2,2589.9L3050.2,2589.9c0-4.1,2.7-8.3,8.2-11.4c10.9-6.3,28.7-6.3,39.7,0
				c5.5,3.2,8.2,7.3,8.2,11.4l0,0l0,0c0,1.2-0.3,2.4-0.7,3.5l-6.5,30.8h0c-0.7,2.3-2.7,4.6-5.8,6.4c-8.3,4.8-21.6,4.8-29.9,0
				c-3.1-1.8-5.1-4-5.8-6.4h0l-6.5-30.9C3050.5,2592.3,3050.2,2591.1,3050.2,2589.9z"/>
			<path class="st8" d="M3254.1,2211.6l1,354l375-216.5l-0.5-189.6c-0.3-90.4-64.9-127.3-143.6-81.8L3254.1,2211.6z"/>
			<polygon class="st9" points="4327.6,2563.5 4152.8,2664.4 3454.9,2260.5 3629.7,2159.6 			"/>
			<path class="st10" d="M4173.7,2478c39.6-22.9,75.7-24.9,101.7-9.7c28.4,16.5,56.9,33.1,85.3,49.6c-26.1-15.2-62.1-13.1-101.7,9.7
				l-231.9,133.9l-85.3-49.6L4173.7,2478z"/>
			<path class="st10" d="M3400.7,2028.1c39.6-22.9,75.7-24.9,101.7-9.7c28.4,16.5,56.9,33.1,85.3,49.6
				c-26.1-15.2-62.1-13.1-101.7,9.7l-231.9,133.9l-85.3-49.6L3400.7,2028.1z"/>
			<path class="st8" d="M3862.3,2506.2l43-24.2c28.3-16.1,58.7-8,67.3,18.1l55.4,161l231-133.4c78.7-45.5,143.4-8.6,143.6,81.9
				l0.6,189.5l-384.7,220l0,0l-114.4,66.1L3862.3,2506.2z"/>
		</g>
		<g>
			<g>
				<linearGradient id="SVGID_5_" gradientUnits="userSpaceOnUse" x1="3809.2207" y1="2272.6802" x2="3827.0352" y2="2432.3899">
					<stop  offset="0" style="stop-color:#8526FF"/>
					<stop  offset="1" style="stop-color:#7D34C2"/>
				</linearGradient>
				<path class="st11" d="M3775.5,2311.5c-1.1,12.9-7.1,62.4-4.2,108.4c3.8,3.5,7.8,7.5,12.9,8.8c25,6.5,50.1,5.5,68.2-3.3
					c1.4-11.5,16.3-62.2,19.1-82.4c0,0-17-75.7-48.6-72C3791.2,2274.8,3775.5,2311.5,3775.5,2311.5z"/>
				<linearGradient id="SVGID_6_" gradientUnits="userSpaceOnUse" x1="3848.5332" y1="2320.1016" x2="3868.4487" y2="2498.647">
					<stop  offset="0" style="stop-color:#8526FF"/>
					<stop  offset="1" style="stop-color:#7D34C2"/>
				</linearGradient>
				<path class="st12" d="M4105.5,2336c20.5,55.2,45.8,127,45.8,127l-103.5-60.2c-9.5,5.8-225.5,110.9-324.1,110.9
					c-12.2,0-99.7-28.8-126.3-53.2c-26.6-24.4-32.1-83.1-26.7-109.5l221.7-21.3c0,0,7.4-0.1,19.5-0.3
					c53.3-0.8,211.6-21.8,220.1-22.8C4049.1,2299.6,4098,2316,4105.5,2336z"/>
			</g>
			<g>
				<linearGradient id="SVGID_7_" gradientUnits="userSpaceOnUse" x1="3526.3062" y1="2114.8762" x2="3592.781" y2="2114.8762">
					<stop  offset="4.132230e-03" style="stop-color:#FF9158"/>
					<stop  offset="1" style="stop-color:#FF4964"/>
				</linearGradient>
				<path class="st13" d="M3548.4,1965.1c-18.4,34.4-24.3,205.8-21.3,220.6c8.1,40.6,53.2,68.7,65.8,79.1L3548.4,1965.1z"/>
				<path class="st14" d="M3536.4,2100.1c-1,20.6,12,111.5,12.5,126.6c9.8,10.3,20.4,19.7,20.4,19.7L3536.4,2100.1z"/>
				<linearGradient id="SVGID_8_" gradientUnits="userSpaceOnUse" x1="3534.3037" y1="2181.8965" x2="3855.7673" y2="2181.8965">
					<stop  offset="4.132230e-03" style="stop-color:#FF9158"/>
					<stop  offset="1" style="stop-color:#FF4964"/>
				</linearGradient>
				<path class="st15" d="M3853.6,2202.6c-0.9,10.8-2,23.2-3.1,35.8c-2.7,30.6-5.3,61.7-4.3,70.6c1.5,12.6,3.7,51.7,2.2,59.8
					c-1.5,8.2-47.3,49.5-87.9,56.9c-9.8,1.8-25,0.2-42.7-3.7c-55.4-12.1-134.8-46.8-147.1-70.9c-3.7-13.3-2.2-76.1-6.7-113
					c-4.4-36.9-31.8-113.7-29.6-180.2c2.2-66.5,8.9-97.5,29.6-111.6c20.7-14.1,94.3-7.8,110.6-6.3c16.3,1.5,85.9,26.2,85.9,26.2
					c11.8,10.3,90.1,98.3,93.1,114.5C3856.5,2097,3856.5,2165.7,3853.6,2202.6z"/>
				<path class="st16" d="M3764.9,1930.8c0,0,0,44.3,0,50.2c0,5.9-19.2,13.3-30.3,11.1c-11.1-2.2-56.1-9.2-64.3-30.5
					c0-22.7,0-50.8,0-50.8L3764.9,1930.8z"/>
				<path class="st17" d="M3764.9,1981c0,0,0,0.4,0,1.2c-0.2,0.8-0.7,2.1-1.7,3.3c-2,2.5-5.7,5.2-10.6,7.4c-2.5,1.1-5.2,2.1-8.3,2.7
					c-3.1,0.6-6.5,1.1-10.3,0.6c-6.2-0.8-13-1.9-19.7-3.5c-3.3-0.8-6.7-1.8-9.9-2.9c-3.3-1-6.4-2.4-9.4-3.7c-3-1.4-5.8-2.9-8.4-4.5
					c-2.6-1.6-4.9-3.3-6.9-5.1c-1-0.9-2-1.8-2.8-2.6c-0.8-1-1.5-1.9-2.2-2.7c-1.4-1.6-2.1-3.6-2.9-4.8c-0.6-1.4-0.8-2.7-1-3.4
					c-0.2-0.8-0.3-1.2-0.3-1.2s1.1,1.4,2.9,3.6c1.2,0.9,2.2,2.2,3.9,3.3c0.8,0.6,1.7,1.1,2.6,1.8c1,0.5,2,1.1,3,1.7
					c1,0.6,2.2,1.1,3.4,1.6c1.2,0.5,2.3,1.2,3.7,1.6c2.5,1.1,5.4,2,8.2,3c2.9,1,5.9,1.8,9,2.7c3.1,0.8,6.3,1.7,9.5,2.5
					c6.5,1.6,13,3.1,19,4.6c2.4,0.6,5.1,0.8,7.8,0.6c2.6-0.2,5.2-0.5,7.6-0.9c4.7-0.9,8.6-2.2,11-3.6c1.2-0.7,2-1.4,2.5-2
					C3764.8,1981.4,3764.9,1981,3764.9,1981z"/>
				<path class="st14" d="M3764.9,1955.8v20.9c0,0-33-17.9-33-28.9L3764.9,1955.8z"/>
				<path class="st18" d="M3803.3,1774.9c2.9,22.2,6.6,67.2,5.9,98.3c-0.7,31-12.6,74.3-18.5,78.5c-5.9,4.2-28.1,6.9-48.7,0
					c-20.7-6.8-62.1-29-62.1-29s-1.5-79,31-100.5C3743.5,1800.8,3803.3,1774.9,3803.3,1774.9z"/>
				<path class="st19" d="M3820,1747c3.3,23.5-10.6,38.3-35.9,52.3c-38.6,21.5-55.4,58.4-54.7,78.3c0.7,19.9,3,58-20,74.1
					c-14,3.5-54.4-8.9-60.6-17.9c-6.1-9-38.4-63.8-36.2-97.7c2.2-34,10.4-75.9,29.6-89.9c19.2-14,98.3-31.2,135.9-25.1
					C3804,1725.2,3818.1,1734,3820,1747z"/>
				<path class="st18" d="M3744.6,1875.4c0,0-13.7-36.2-31.8-21.4c-18.1,14.8,7.4,64.1,21,54.7
					C3747.5,1899.2,3744.6,1875.4,3744.6,1875.4z"/>
				<path class="st16" d="M4053.6,2180.7c6.6-12.9-2.2-33.6,9.6-35.1c11.8-1.5,20.7,13.3,23.6,1.5c3-11.8,25-45.7,36.4-41.2
					c11.4,4.4,15.8,34,15.3,47.2c-0.5,14.9-2.4,25.1-9.3,38.6c-4.4,8.6-31.9,24.3-44.9,26.1c-13,1.7-25,1.9-28.2-7.1
					C4052.9,2201.7,4053.6,2180.7,4053.6,2180.7z"/>
				<path class="st14" d="M3846.1,2309c1.5,12.6,3.7,51.7,2.2,59.8c-1.5,8.2-47.3,49.5-87.9,56.9c-9.8,1.8-25,0.2-42.7-3.7
					c100.4-1.3,103.2-86.3,102.7-111.8c-0.5-25.5-44.9-115.2-55.5-152.7c0,0,32.7,7.6,63.8,42.2c8.6,9.6,15.9,23.1,21.8,38.7
					C3847.8,2269,3845.1,2300.1,3846.1,2309z"/>
				<linearGradient id="SVGID_9_" gradientUnits="userSpaceOnUse" x1="3759.0212" y1="2195.7283" x2="4084.9431" y2="2195.7283">
					<stop  offset="4.132230e-03" style="stop-color:#FF9158"/>
					<stop  offset="1" style="stop-color:#FF4964"/>
				</linearGradient>
				<path class="st20" d="M3853.5,2080.7c8.6,16,76.7,134.3,85.6,157.2c20,0.7,56.2-23.6,72.4-35.5c16.3-11.8,30.3-25.1,36.2-24.4
					c5.9,0.7,40.6,22.9,36.9,49.5c-1.5,8.1-58.5,52-81.5,64.4c-26.4,14.2-58.8,30.5-68.9,34.2c-10.1,3.7-28.4,8.7-50.5-6.8
					c-22.2-15.5-113.7-116-123.3-178.8c-9.6-62.8,31-78.3,47.3-79.1C3824,2060.8,3847.2,2068.8,3853.5,2080.7z"/>
				<path class="st17" d="M4047.7,2178.1c0,0.1,1-0.3,3,0c2,0.3,4.6,1,7.7,2.2c3,1.3,6.4,3,9.7,5.4c1.7,1.1,3.3,2.6,4.9,3.9
					c1.5,1.5,3.1,3,4.5,4.7c2.8,3.4,5.3,7.2,6.9,11.1c0.9,1.9,1.3,4,1.9,5.8c0.5,1.9,0.5,3.8,0.7,5.5c0.1,1.7-0.2,3.3-0.3,4.6
					c0,1.3-0.6,2.5-0.9,3.4c-0.6,1.8-1.1,2.8-1.1,2.8s-0.3-1.1-0.8-2.9c-0.2-0.9-0.4-1.9-0.9-3.1c-0.5-1.1-0.9-2.4-1.4-3.7
					c-0.7-1.3-1.3-2.7-2.1-4.1c-0.9-1.4-1.5-2.9-2.6-4.3c-1.9-2.9-4.2-5.9-6.7-8.8c-1.2-1.5-2.6-2.9-3.8-4.3
					c-1.4-1.3-2.5-2.8-3.9-4.1c-2.5-2.7-5-5.1-7.1-7.3c-2.2-2.1-4-3.9-5.3-5.1c-0.6-0.6-1.2-1.1-1.7-1.4
					C4048,2178.3,4047.7,2178.1,4047.7,2178.1z"/>
			</g>
		</g>
		<g>
			<polygon class="st9" points="3862.3,2506.2 3004,2007.4 3045.7,2586.3 3904.1,3085.1 			"/>
			<linearGradient id="SVGID_10_" gradientUnits="userSpaceOnUse" x1="3003.9656" y1="2240.5098" x2="3955.8938" y2="2240.5098">
				<stop  offset="4.132230e-03" style="stop-color:#FFE048"/>
				<stop  offset="0.9917" style="stop-color:#FF9158"/>
			</linearGradient>
			<path class="st21" d="M3046.9,1983.2c18.1-10.3,37.1-10.7,50.7-2.8l858.3,498.8c-13.6-7.9-32.5-7.5-50.7,2.8l-42.9,24.2
				L3004,2007.4L3046.9,1983.2z"/>
		</g>
	</g>
	<g>
		<polygon class="st22" points="4246.4,1721.9 5364.5,2367.4 5717.9,2163.5 4599.8,1518 		"/>
		<g>
			<path class="st8" d="M5291.3,2285L5291.3,2285L5291.3,2285c0-3.6,2.4-7.2,7.1-9.9c9.5-5.5,24.9-5.5,34.4,0
				c4.8,2.7,7.1,6.3,7.1,9.9l0,0l0,0c0,1-0.3,2-0.6,3l-5.6,26.7h0c-0.6,2-2.3,4-5,5.6c-7.1,4.1-18.8,4.1-25.9,0
				c-2.7-1.6-4.4-3.5-5-5.5h0l-5.7-26.7C5291.6,2287,5291.3,2286,5291.3,2285z"/>
			<path class="st8" d="M5542.6,2144.2L5542.6,2144.2L5542.6,2144.2c0-3.6,2.4-7.2,7.1-9.9c9.5-5.5,24.9-5.5,34.4,0
				c4.8,2.7,7.1,6.3,7.1,9.9l0,0l0,0c0,1-0.3,2-0.6,3l-5.6,26.7h0c-0.6,2-2.3,4-5,5.6c-7.2,4.1-18.8,4.1-25.9,0
				c-2.7-1.6-4.4-3.5-5-5.5h0l-5.7-26.7C5542.9,2146.2,5542.6,2145.2,5542.6,2144.2z"/>
			<path class="st8" d="M4274.5,1698.4L4274.5,1698.4L4274.5,1698.4c0-3.6,2.4-7.2,7.1-9.9c9.5-5.5,24.9-5.5,34.4,0
				c4.8,2.7,7.1,6.3,7.1,9.9l0,0l0,0c0,1-0.2,2-0.6,3l-5.7,26.7h0c-0.6,2-2.3,4-5,5.6c-7.2,4.1-18.8,4.1-25.9,0
				c-2.7-1.6-4.4-3.5-5.1-5.5h0l-5.7-26.7C4274.8,1700.4,4274.5,1699.4,4274.5,1698.4z"/>
			<polygon class="st23" points="4267.5,1400.9 4267.5,1699 5315.6,2304.1 5315.6,2005.9 			"/>
			<polygon class="st8" points="5599,1842.4 5599,2140.6 5315.6,2304.1 5315.6,2005.9 			"/>
			<polygon class="st9" points="4625,1737.6 4958.2,1929.9 4958.2,1823.8 4625,1631.4 			"/>
			<polygon class="st9" points="4625,1881 4958.2,2073.4 4958.2,1967.2 4625,1774.9 			"/>
			<polygon class="st9" points="4982.2,1837.7 4982.2,2087.4 5294.6,2267.8 5294.6,2018.1 			"/>
			<polygon class="st9" points="4288.5,1437.2 4288.5,1686.9 4601,1867.3 4601,1617.6 			"/>
			<path class="st24" d="M4540,1714c0,9.2,6.4,20.3,14.4,24.9c7.9,4.6,14.4,0.9,14.4-8.3c0-9.2-6.5-20.3-14.4-24.9
				C4546.4,1701.1,4540,1704.8,4540,1714z"/>
			<path class="st24" d="M5004.6,1970.1c0,9.2,6.4,20.3,14.4,24.9c7.9,4.6,14.4,0.9,14.4-8.3c0-9.2-6.5-20.3-14.4-24.9
				C5011.1,1957.2,5004.6,1960.9,5004.6,1970.1z"/>
			<path class="st24" d="M4777.2,1766.6c0,9.2,6.4,20.3,14.4,24.9c7.9,4.6,14.4,0.9,14.4-8.3c0-9.2-6.5-20.3-14.4-24.9
				C4783.6,1753.7,4777.2,1757.4,4777.2,1766.6z"/>
			<path class="st24" d="M4777.2,1915.8c0,9.2,6.4,20.3,14.4,24.9c7.9,4.6,14.4,0.9,14.4-8.3c0-9.2-6.5-20.3-14.4-24.9
				C4783.6,1902.9,4777.2,1906.6,4777.2,1915.8z"/>
		</g>
		<g>
			<linearGradient id="SVGID_11_" gradientUnits="userSpaceOnUse" x1="4197.5718" y1="1565.2336" x2="5669.0112" y2="1565.2336">
				<stop  offset="4.132230e-03" style="stop-color:#FF9158"/>
				<stop  offset="1" style="stop-color:#FF4964"/>
			</linearGradient>
			<polygon class="st25" points="4197.6,1344.4 5315.6,1989.9 5669,1786 4551,1140.5 			"/>
			<polygon class="st23" points="4197.6,1344.4 4197.6,1368.5 5315.6,2014 5315.6,1989.9 			"/>
			<polygon class="st8" points="5669,1786 5669,1810.1 5315.6,2014 5315.6,1989.9 			"/>
			<g class="st26">
				<path class="st8" d="M4197.6,1368.5c0,0,69.6,40.8,174,102.1c104.7,60.8,244.2,141.9,383.7,222.9
					c140,80.3,280,160.6,384.9,220.8c105.2,59.8,175.4,99.6,175.4,99.6s-69.6-40.8-174-102.1c-104.6-60.8-244.2-141.9-383.7-222.9
					c-140-80.3-280-160.6-384.9-220.8C4267.7,1408.4,4197.6,1368.5,4197.6,1368.5z"/>
			</g>
		</g>
		<g>
			<polygon class="st8" points="4555.8,1354.7 4620.4,1317.1 4620.9,1131 4556.3,1168.5 			"/>
			<polygon class="st27" points="4556.3,1168.5 4620.9,1131 4534.2,1081 4469.7,1118.5 			"/>
			<polygon class="st23" points="4469.7,1118.5 4469.2,1304.6 4555.8,1354.7 4556.3,1168.5 			"/>
			<g class="st26">
				<path class="st8" d="M4469.3,1119.2c14.3,8.7,28.4,17.5,42.8,26c14.3,8.5,28.6,17.1,43.1,25.5l-1.2-2.1l-0.3,46.5l0.1,46.5
					l0.4,46.5l0.9,46.5l1.7,0l1.1-46.5l0.7-46.5l0.3-46.5l0-46.5v-1.4l-1.2-0.7c-14.5-8.3-29-16.4-43.6-24.6
					c-14.5-8.2-29.2-16-43.9-24.1L4469.3,1119.2z"/>
			</g>
			<path class="st9" d="M4482.9,1177.3c0,19,13.4,42.1,29.8,51.6c16.5,9.5,29.8,1.8,29.8-17.2c0-19-13.4-42.1-29.8-51.6
				C4496.3,1150.6,4482.9,1158.3,4482.9,1177.3z"/>
			<path class="st28" d="M4508.8,1178.9c0,9.2,6.5,20.4,14.5,25.1c8,4.6,14.5,0.9,14.5-8.4c0-9.2-6.5-20.5-14.5-25.1
				C4515.3,1165.9,4508.8,1169.6,4508.8,1178.9z"/>
			<path class="st9" d="M4482.9,1264.1c0,19,13.4,42.1,29.8,51.6c16.5,9.5,29.8,1.8,29.8-17.2c0-19-13.4-42.1-29.8-51.6
				C4496.3,1237.4,4482.9,1245.1,4482.9,1264.1z"/>
			<path class="st28" d="M4508.8,1265.7c0,9.2,6.5,20.4,14.5,25.1c8,4.6,14.5,0.9,14.5-8.4c0-9.2-6.5-20.5-14.5-25.1
				C4515.3,1252.7,4508.8,1256.5,4508.8,1265.7z"/>
		</g>
		<g>
			<g>
				<polygon class="st9" points="5167.3,1668.7 5178.9,1662 5190.5,1655.4 5248.5,1677 5263.3,1685.6 5205.3,1664 5193.7,1670.6 
					5182.1,1677.3 5124.4,1765.9 5109.6,1757.3 				"/>
				<polygon class="st8" points="5182.1,1677.3 5124.4,1765.9 5140.9,1756.3 5193.8,1698.2 5246.8,1695.2 5263.3,1685.6 
					5205.3,1664 5193.7,1670.6 				"/>
			</g>
			<g>
				<polygon class="st9" points="4646.3,1364.9 4657.8,1358.2 4669.4,1351.5 4727.5,1373.2 4742.2,1381.8 4684.2,1360.1 
					4672.6,1366.8 4661,1373.5 4603.3,1462 4588.5,1453.4 				"/>
				<polygon class="st8" points="4661,1373.5 4603.3,1462 4619.9,1452.5 4672.7,1394.4 4725.7,1391.3 4742.2,1381.8 4684.2,1360.1 
					4672.6,1366.8 				"/>
			</g>
			<polygon class="st8" points="5287.4,1732.9 5314.4,1716.2 5315.6,1305.2 5288.6,1305.2 			"/>
			<polygon class="st27" points="5288.6,1305.2 5315.6,1305.2 4608.5,897 4581.5,897 			"/>
			<polygon class="st23" points="4581.5,897 4580.3,1324.6 5287.4,1732.9 5288.6,1305.2 			"/>
			<linearGradient id="SVGID_12_" gradientUnits="userSpaceOnUse" x1="4601.3247" y1="1314.9072" x2="5267.6108" y2="1314.9072">
				<stop  offset="4.132230e-03" style="stop-color:#FFE048"/>
				<stop  offset="0.9917" style="stop-color:#FF9158"/>
			</linearGradient>
			<polygon class="st29" points="4601.3,1312.6 4833.5,1446.6 4880,1473.4 4999.1,1542.2 5102.6,1601.9 5266.6,1696.6 
				5267.6,1317.3 5038.8,1185.2 4935.3,1125.5 4816.3,1056.7 4769.7,1029.8 4602.4,933.3 			"/>
			<g class="st26">
				<polygon class="st30" points="4581.1,897.7 4757.4,1000.6 4934,1103 5110.6,1205.4 5287.5,1307.1 5286.4,1305.2 5286.2,1519 
					5286.6,1732.9 5288.3,1732.9 5289.9,1519.1 5290.9,1305.2 5290.9,1303.9 5289.8,1303.3 5113.2,1200.9 4936.2,1099.2 
					4759.2,997.5 4582,896.3 				"/>
			</g>
		</g>
		<g>
			<polygon class="st8" points="5408.4,1840.6 5472.9,1803 5473.5,1616.9 5408.9,1654.4 			"/>
			<polygon class="st27" points="5408.9,1654.4 5473.5,1616.9 5386.8,1566.9 5322.3,1604.4 			"/>
			<polygon class="st23" points="5322.3,1604.4 5321.7,1790.5 5408.4,1840.6 5408.9,1654.4 			"/>
			<g class="st26">
				<path class="st8" d="M5321.8,1605.1c14.3,8.7,28.4,17.5,42.8,26c14.3,8.5,28.6,17.1,43.1,25.4l-1.2-2.1l-0.3,46.5l0.1,46.5
					l0.4,46.5l0.9,46.5l1.7,0l1.1-46.5l0.7-46.5l0.3-46.5l0-46.5v-1.4l-1.2-0.7c-14.4-8.3-29-16.5-43.6-24.6
					c-14.5-8.2-29.2-16-43.9-24.1L5321.8,1605.1z"/>
			</g>
			<path class="st9" d="M5335.5,1663.2c0,19,13.3,42.1,29.8,51.6c16.5,9.5,29.8,1.8,29.8-17.2c0-19-13.4-42.1-29.8-51.6
				C5348.8,1636.5,5335.5,1644.2,5335.5,1663.2z"/>
			<path class="st28" d="M5361.4,1664.8c0,9.2,6.5,20.4,14.5,25.1c8,4.6,14.5,0.9,14.5-8.4c0-9.2-6.5-20.4-14.5-25.1
				C5367.9,1651.8,5361.4,1655.6,5361.4,1664.8z"/>
			<path class="st9" d="M5335.5,1750c0,19,13.3,42.1,29.8,51.6c16.5,9.5,29.8,1.8,29.8-17.2c0-19-13.4-42.1-29.8-51.6
				C5348.8,1723.3,5335.5,1731,5335.5,1750z"/>
			<path class="st28" d="M5361.4,1751.6c0,9.2,6.5,20.4,14.5,25.1c8,4.6,14.5,0.9,14.5-8.4c0-9.2-6.5-20.4-14.5-25.1
				C5367.9,1738.7,5361.4,1742.4,5361.4,1751.6z"/>
		</g>
	</g>
	<g>
		<linearGradient id="SVGID_13_" gradientUnits="userSpaceOnUse" x1="4789.8701" y1="1292.7429" x2="5012.1655" y2="1292.7429">
			<stop  offset="4.132230e-03" style="stop-color:#FF4964"/>
			<stop  offset="0.9917" style="stop-color:#FF9768"/>
		</linearGradient>
		<path class="st31" d="M5012.2,1356.9c0,70.9-49.8,99.6-111.2,64.2c-61.4-35.4-111.1-121.6-111.1-192.5
			c0-70.9,49.8-99.6,111.1-64.2C4962.4,1199.8,5012.2,1286,5012.2,1356.9z"/>
		<path class="st32" d="M4877.5,1219.8c2.7,1.5,5.6,4.3,8.8,8.2l65.3,81.9c10.8,13.5,10.8,25.5-0.1,26.5l-65.6,6.3
			c-3.2,0.3-6.2-0.4-8.8-1.9c-6.4-3.7-10.8-12.2-10.8-22.3l0.3-88.9C4866.6,1219.5,4871.1,1216.1,4877.5,1219.8z"/>
		<path class="st33" d="M4865.5,1224.9c2.7,1.5,5.7,4.3,8.8,8.2l65.3,81.9c10.8,13.5,10.8,25.5-0.1,26.5l-65.6,6.3
			c-3.2,0.3-6.2-0.4-8.8-2c-6.4-3.7-10.8-12.1-10.8-22.3l0.3-88.9C4854.6,1224.5,4859.1,1221.1,4865.5,1224.9z"/>
	</g>
</g>
<g id="Layer_2">
</g>
</svg>
