<?xml version="1.0" encoding="utf-8"?>
<!-- Generator: Adobe Illustrator 25.4.1, SVG Export Plug-In . SVG Version: 6.00 Build 0)  -->
<svg version="1.1" id="Layer_1" xmlns="http://www.w3.org/2000/svg" xmlns:xlink="http://www.w3.org/1999/xlink" x="0px" y="0px"
	 viewBox="0 0 134 24" style="enable-background:new 0 0 134 24;" xml:space="preserve">
<style type="text/css">
	.st0{fill:#F26722;}
	.st1{fill:#FFFFFF;}
</style>
<path class="st0" d="M18.5,7.4l-4.4,10.4c0,0.1-0.1,0.1-0.1,0.2l0,0c0,0-0.1,0.1-0.1,0.1c0,0,0,0,0,0.1c0,0-0.1,0.1-0.1,0.1h0
	c-0.1,0-0.1,0.1-0.2,0.1h0c0,0,0,0,0,0c0,0-0.1,0-0.1,0c0,0,0,0,0,0c-0.1,0-0.1,0-0.2,0c-0.1,0-0.1,0-0.2,0c0,0-0.1,0-0.1,0
	c-0.1,0-0.1,0-0.1,0c0,0,0,0,0,0c-0.1,0-0.1-0.1-0.2-0.1c0,0,0,0,0,0c-0.1,0-0.1-0.1-0.1-0.1c0,0,0,0,0-0.1c0,0-0.1-0.1-0.1-0.1
	c0,0,0,0,0,0c0,0-0.1-0.1-0.1-0.2L10,12.3l-2.3,5.5c0,0.1-0.1,0.1-0.1,0.2c0,0,0,0,0,0c0,0-0.1,0.1-0.1,0.1c0,0,0,0,0,0.1
	c0,0-0.1,0.1-0.1,0.1c0,0,0,0,0,0c-0.1,0-0.1,0.1-0.1,0.1c0,0,0,0,0,0s0,0,0,0c-0.1,0-0.1,0-0.1,0c0,0,0,0-0.1,0c-0.1,0-0.1,0-0.2,0
	c-0.1,0-0.1,0-0.2,0c0,0,0,0-0.1,0c-0.1,0-0.1,0-0.1,0c0,0,0,0,0,0c-0.1,0-0.1-0.1-0.2-0.1c0,0,0,0,0,0c-0.1,0-0.1-0.1-0.1-0.1
	c0,0,0,0,0-0.1C6,18.1,6,18,5.9,18v0c0,0-0.1-0.1-0.1-0.2L1.5,7.4C1.3,6.9,1.5,6.3,2,6.1c0.5-0.2,1.1,0,1.3,0.5l3.5,8.3l2.3-5.5
	C9.2,9.1,9.6,8.8,10,8.8c0.4,0,0.8,0.2,0.9,0.6l2.3,5.5l3.5-8.3c0.2-0.5,0.8-0.7,1.3-0.5C18.5,6.3,18.7,6.9,18.5,7.4z"/>
<path class="st0" d="M25,15.5h-4.3l-0.9,2.3c-0.2,0.4-0.5,0.6-0.9,0.6c-0.1,0-0.2,0-0.3-0.1c-0.5-0.2-0.8-0.8-0.6-1.3l3.9-10.5
	c0.2-0.4,0.6-0.6,0.9-0.6c0.4,0,0.8,0.2,0.9,0.6l3.9,10.5c0.2,0.5-0.1,1.1-0.6,1.3c-0.1,0-0.2,0.1-0.3,0.1c-0.4,0-0.8-0.2-0.9-0.6
	L25,15.5z M24.2,13.5l-1.4-3.8l-1.4,3.8H24.2z"/>
<path class="st0" d="M36,7.9h-2.8v9.5c0,0.6-0.4,1-1,1c-0.5,0-1-0.4-1-1V7.9h-2.8c-0.6,0-1-0.5-1-1c0-0.6,0.4-1,1-1H36
	c0.5,0,1,0.4,1,1C37,7.4,36.5,7.9,36,7.9z"/>
<path class="st0" d="M37.4,12c0-3.5,3-6.4,6.6-6.4c1.6,0,3,0.5,4.1,1.4c0.4,0.4,0.5,1,0.2,1.4c-0.4,0.4-1,0.5-1.4,0.2
	c-0.8-0.6-1.8-1-2.9-1c-1.2,0-2.4,0.5-3.2,1.3c-0.8,0.8-1.3,1.9-1.3,3.1c0,1.2,0.5,2.3,1.3,3.1c0.8,0.8,2,1.3,3.2,1.3
	c1.1,0,2.1-0.3,2.9-1c0.4-0.3,1.1-0.2,1.4,0.2c0.3,0.4,0.3,1.1-0.2,1.4c-1.1,0.9-2.6,1.4-4.1,1.4C40.4,18.4,37.4,15.6,37.4,12z"/>
<path class="st0" d="M50.7,17.4V6.9c0-0.6,0.4-1,1-1c0.6,0,1,0.4,1,1v4.3h4.6V6.9c0-0.6,0.4-1,1-1s1,0.4,1,1v10.5c0,0.6-0.4,1-1,1
	s-1-0.4-1-1v-4.3h-4.6v4.3c0,0.6-0.4,1-1,1C51.1,18.4,50.7,18,50.7,17.4z"/>
<path class="st1" d="M79.2,4.2c1.9,2,3.1,4.7,3.1,7.8s-1.2,5.8-3.1,7.8c-1.8,2-4.5,3.3-7.4,3.3c-3,0-5.7-1.3-7.6-3.3
	c-1.9-2-3.1-4.7-3.1-7.8s1.1-5.8,3.1-7.8c1.9-2,4.6-3.3,7.6-3.3C74.6,0.9,77.4,2.2,79.2,4.2z M78.8,12c0-2.1-0.8-4-2.1-5.4
	c-1.3-1.4-3-2.2-4.9-2.2c-2,0-3.7,0.8-5,2.2C65.5,8,64.7,9.9,64.7,12c0,2.1,0.8,4,2.1,5.4c1.3,1.4,3,2.2,5,2.2
	c1.8,0,3.6-0.8,4.9-2.2C77.9,16,78.8,14.1,78.8,12z"/>
<path class="st0" d="M89.2,13.4H87v3.9c0,0.5-0.4,1-1,1c-0.5,0-1-0.4-1-1V6.7c0-0.6,0.4-1,1-1h0h3.2c2.1,0,3.8,1.7,3.8,3.8
	C93,11.7,91.3,13.4,89.2,13.4z M87,11.4h2.2c1,0,1.8-0.8,1.9-1.8c0-1-0.8-1.9-1.9-1.9H87V11.4z"/>
<path class="st0" d="M94.4,17.3V6.7c0-0.6,0.4-1,1-1h0c0,0,0,0,0,0h5.8c0.5,0,1,0.4,1,1s-0.5,1-1,1h-4.8V11h4.2c0.5,0,1,0.5,1,1
	c0,0.6-0.4,1-1,1h-4.2v3.3h4.8c0.5,0,1,0.4,1,1c0,0.5-0.5,1-1,1h-5.8c0,0,0,0,0,0l0,0C94.9,18.3,94.4,17.8,94.4,17.3z"/>
<path class="st0" d="M105,17.3V6.7c0-0.6,0.4-1,1-1h2.1c3.4,0,6.2,2.8,6.2,6.2c0,3.5-2.8,6.3-6.2,6.3H106
	C105.4,18.3,105,17.8,105,17.3z M107,16.3h1.1c2.4,0,4.3-1.9,4.3-4.3c0-2.3-1.9-4.3-4.3-4.3H107V16.3z"/>
<path class="st0" d="M117.1,6.7c0-0.6,0.4-1,1-1c0.5,0,1,0.4,1,1v10.5c0,0.6-0.5,1-1,1c-0.6,0-1-0.4-1-1V6.7z"/>
<path class="st0" d="M128.8,15.3h-4.3l-0.9,2.3c-0.2,0.4-0.5,0.6-0.9,0.6c-0.1,0-0.2,0-0.3-0.1c-0.5-0.2-0.8-0.8-0.6-1.3l3.9-10.5
	c0.2-0.4,0.6-0.6,0.9-0.6c0.4,0,0.8,0.2,0.9,0.6l3.9,10.5c0.2,0.5-0.1,1.1-0.6,1.3c-0.1,0-0.2,0.1-0.3,0.1c-0.4,0-0.8-0.2-0.9-0.6
	L128.8,15.3z M128.1,13.3l-1.4-3.8l-1.4,3.8H128.1z"/>
</svg>
